<svg width="80" height="81" viewBox="0 0 80 81" fill="none" xmlns="http://www.w3.org/2000/svg">
<path d="M38.1056 7.01787C38.1056 7.01787 7.50133 6.12667 4.09866 40.8803C5.96213 74.2563 33.6331 76.2008 38.1056 76.2819C34.7205 74.2568 19.336 65.1027 19.336 40.8803C19.336 16.6579 38.1056 7.01787 38.1056 7.01787Z" fill="#171717"/>
<path d="M75.7195 40.8803C75.7195 40.8803 70.3259 46.1213 69.8533 55.3613C69.7579 57.2275 69.4667 59.0803 68.9248 60.8691C66.5488 68.7155 60.2021 77.6781 47.032 76.1789C47.032 76.1789 58.0512 71.2589 58.0512 57.0008C58.0512 57.0008 58.0576 46.7123 46.2677 40.8797H76.2667" fill="#171717"/>
<path d="M47.5477 6.9368H65.9093V26.3795C65.9093 26.3795 64.4251 11.7976 47.5477 6.9368Z" fill="#171717"/>
</svg>
